<svg width="898" height="202" viewBox="0 0 898 202" xmlns="http://www.w3.org/2000/svg">
  <rect width="898" height="202" fill="#ffffff" rx="8"/>
  <text x="30" y="18" font-size="13" font-weight="600" fill="#24292f" font-family="-apple-system,BlinkMacSystemFont,Segoe UI,sans-serif">2025 Contribution Activity</text>
  <text x="30" y="38" font-size="11" fill="#767676" font-family="-apple-system,BlinkMacSystemFont,Segoe UI,sans-serif">Jan</text>  <text x="94" y="38" font-size="11" fill="#767676" font-family="-apple-system,BlinkMacSystemFont,Segoe UI,sans-serif">Feb</text>  <text x="158" y="38" font-size="11" fill="#767676" font-family="-apple-system,BlinkMacSystemFont,Segoe UI,sans-serif">Mar</text>  <text x="238" y="38" font-size="11" fill="#767676" font-family="-apple-system,BlinkMacSystemFont,Segoe UI,sans-serif">Apr</text>  <text x="302" y="38" font-size="11" fill="#767676" font-family="-apple-system,BlinkMacSystemFont,Segoe UI,sans-serif">May</text>  <text x="382" y="38" font-size="11" fill="#767676" font-family="-apple-system,BlinkMacSystemFont,Segoe UI,sans-serif">Jun</text>  <text x="446" y="38" font-size="11" fill="#767676" font-family="-apple-system,BlinkMacSystemFont,Segoe UI,sans-serif">Jul</text>  <text x="510" y="38" font-size="11" fill="#767676" font-family="-apple-system,BlinkMacSystemFont,Segoe UI,sans-serif">Aug</text>  <text x="590" y="38" font-size="11" fill="#767676" font-family="-apple-system,BlinkMacSystemFont,Segoe UI,sans-serif">Sep</text>  <text x="654" y="38" font-size="11" fill="#767676" font-family="-apple-system,BlinkMacSystemFont,Segoe UI,sans-serif">Oct</text>  <text x="718" y="38" font-size="11" fill="#767676" font-family="-apple-system,BlinkMacSystemFont,Segoe UI,sans-serif">Nov</text>  <text x="798" y="38" font-size="11" fill="#767676" font-family="-apple-system,BlinkMacSystemFont,Segoe UI,sans-serif">Dec</text>
  <text x="0" y="79" font-size="9" fill="#767676" font-family="-apple-system,BlinkMacSystemFont,Segoe UI,sans-serif">Mon</text>  <text x="0" y="111" font-size="9" fill="#767676" font-family="-apple-system,BlinkMacSystemFont,Segoe UI,sans-serif">Wed</text>  <text x="0" y="143" font-size="9" fill="#767676" font-family="-apple-system,BlinkMacSystemFont,Segoe UI,sans-serif">Fri</text>
  <rect x="30" y="98" width="13" height="13" rx="2" fill="#40c463"><title>Jan 01, 2025</title></rect>  <rect x="30" y="114" width="13" height="13" rx="2" fill="#ebedf0"><title>Jan 02, 2025</title></rect>  <rect x="30" y="130" width="13" height="13" rx="2" fill="#9be9a8"><title>Jan 03, 2025</title></rect>  <rect x="30" y="146" width="13" height="13" rx="2" fill="#9be9a8"><title>Jan 04, 2025</title></rect>  <rect x="46" y="50" width="13" height="13" rx="2" fill="#216e39"><title>Jan 05, 2025</title></rect>  <rect x="46" y="66" width="13" height="13" rx="2" fill="#40c463"><title>Jan 06, 2025</title></rect>  <rect x="46" y="82" width="13" height="13" rx="2" fill="#216e39"><title>Jan 07, 2025</title></rect>  <rect x="46" y="98" width="13" height="13" rx="2" fill="#ebedf0"><title>Jan 08, 2025</title></rect>  <rect x="46" y="114" width="13" height="13" rx="2" fill="#40c463"><title>Jan 09, 2025</title></rect>  <rect x="46" y="130" width="13" height="13" rx="2" fill="#ebedf0"><title>Jan 10, 2025</title></rect>  <rect x="46" y="146" width="13" height="13" rx="2" fill="#9be9a8"><title>Jan 11, 2025</title></rect>  <rect x="62" y="50" width="13" height="13" rx="2" fill="#40c463"><title>Jan 12, 2025</title></rect>  <rect x="62" y="66" width="13" height="13" rx="2" fill="#ebedf0"><title>Jan 13, 2025</title></rect>  <rect x="62" y="82" width="13" height="13" rx="2" fill="#9be9a8"><title>Jan 14, 2025</title></rect>  <rect x="62" y="98" width="13" height="13" rx="2" fill="#40c463"><title>Jan 15, 2025</title></rect>  <rect x="62" y="114" width="13" height="13" rx="2" fill="#40c463"><title>Jan 16, 2025</title></rect>  <rect x="62" y="130" width="13" height="13" rx="2" fill="#9be9a8"><title>Jan 17, 2025</title></rect>  <rect x="62" y="146" width="13" height="13" rx="2" fill="#40c463"><title>Jan 18, 2025</title></rect>  <rect x="78" y="50" width="13" height="13" rx="2" fill="#216e39"><title>Jan 19, 2025</title></rect>  <rect x="78" y="66" width="13" height="13" rx="2" fill="#ebedf0"><title>Jan 20, 2025</title></rect>  <rect x="78" y="82" width="13" height="13" rx="2" fill="#216e39"><title>Jan 21, 2025</title></rect>  <rect x="78" y="98" width="13" height="13" rx="2" fill="#216e39"><title>Jan 22, 2025</title></rect>  <rect x="78" y="114" width="13" height="13" rx="2" fill="#9be9a8"><title>Jan 23, 2025</title></rect>  <rect x="78" y="130" width="13" height="13" rx="2" fill="#9be9a8"><title>Jan 24, 2025</title></rect>  <rect x="78" y="146" width="13" height="13" rx="2" fill="#216e39"><title>Jan 25, 2025</title></rect>  <rect x="94" y="50" width="13" height="13" rx="2" fill="#9be9a8"><title>Jan 26, 2025</title></rect>  <rect x="94" y="66" width="13" height="13" rx="2" fill="#ebedf0"><title>Jan 27, 2025</title></rect>  <rect x="94" y="82" width="13" height="13" rx="2" fill="#ebedf0"><title>Jan 28, 2025</title></rect>  <rect x="94" y="98" width="13" height="13" rx="2" fill="#216e39"><title>Jan 29, 2025</title></rect>  <rect x="94" y="114" width="13" height="13" rx="2" fill="#40c463"><title>Jan 30, 2025</title></rect>  <rect x="94" y="130" width="13" height="13" rx="2" fill="#216e39"><title>Jan 31, 2025</title></rect>  <rect x="94" y="146" width="13" height="13" rx="2" fill="#216e39"><title>Feb 01, 2025</title></rect>  <rect x="110" y="50" width="13" height="13" rx="2" fill="#40c463"><title>Feb 02, 2025</title></rect>  <rect x="110" y="66" width="13" height="13" rx="2" fill="#216e39"><title>Feb 03, 2025</title></rect>  <rect x="110" y="82" width="13" height="13" rx="2" fill="#9be9a8"><title>Feb 04, 2025</title></rect>  <rect x="110" y="98" width="13" height="13" rx="2" fill="#40c463"><title>Feb 05, 2025</title></rect>  <rect x="110" y="114" width="13" height="13" rx="2" fill="#216e39"><title>Feb 06, 2025</title></rect>  <rect x="110" y="130" width="13" height="13" rx="2" fill="#40c463"><title>Feb 07, 2025</title></rect>  <rect x="110" y="146" width="13" height="13" rx="2" fill="#216e39"><title>Feb 08, 2025</title></rect>  <rect x="126" y="50" width="13" height="13" rx="2" fill="#40c463"><title>Feb 09, 2025</title></rect>  <rect x="126" y="66" width="13" height="13" rx="2" fill="#216e39"><title>Feb 10, 2025</title></rect>  <rect x="126" y="82" width="13" height="13" rx="2" fill="#ebedf0"><title>Feb 11, 2025</title></rect>  <rect x="126" y="98" width="13" height="13" rx="2" fill="#9be9a8"><title>Feb 12, 2025</title></rect>  <rect x="126" y="114" width="13" height="13" rx="2" fill="#9be9a8"><title>Feb 13, 2025</title></rect>  <rect x="126" y="130" width="13" height="13" rx="2" fill="#ebedf0"><title>Feb 14, 2025</title></rect>  <rect x="126" y="146" width="13" height="13" rx="2" fill="#9be9a8"><title>Feb 15, 2025</title></rect>  <rect x="142" y="50" width="13" height="13" rx="2" fill="#ebedf0"><title>Feb 16, 2025</title></rect>  <rect x="142" y="66" width="13" height="13" rx="2" fill="#9be9a8"><title>Feb 17, 2025</title></rect>  <rect x="142" y="82" width="13" height="13" rx="2" fill="#40c463"><title>Feb 18, 2025</title></rect>  <rect x="142" y="98" width="13" height="13" rx="2" fill="#9be9a8"><title>Feb 19, 2025</title></rect>  <rect x="142" y="114" width="13" height="13" rx="2" fill="#9be9a8"><title>Feb 20, 2025</title></rect>  <rect x="142" y="130" width="13" height="13" rx="2" fill="#9be9a8"><title>Feb 21, 2025</title></rect>  <rect x="142" y="146" width="13" height="13" rx="2" fill="#9be9a8"><title>Feb 22, 2025</title></rect>  <rect x="158" y="50" width="13" height="13" rx="2" fill="#216e39"><title>Feb 23, 2025</title></rect>  <rect x="158" y="66" width="13" height="13" rx="2" fill="#40c463"><title>Feb 24, 2025</title></rect>  <rect x="158" y="82" width="13" height="13" rx="2" fill="#40c463"><title>Feb 25, 2025</title></rect>  <rect x="158" y="98" width="13" height="13" rx="2" fill="#9be9a8"><title>Feb 26, 2025</title></rect>  <rect x="158" y="114" width="13" height="13" rx="2" fill="#216e39"><title>Feb 27, 2025</title></rect>  <rect x="158" y="130" width="13" height="13" rx="2" fill="#9be9a8"><title>Feb 28, 2025</title></rect>  <rect x="158" y="146" width="13" height="13" rx="2" fill="#9be9a8"><title>Mar 01, 2025</title></rect>  <rect x="174" y="50" width="13" height="13" rx="2" fill="#216e39"><title>Mar 02, 2025</title></rect>  <rect x="174" y="66" width="13" height="13" rx="2" fill="#40c463"><title>Mar 03, 2025</title></rect>  <rect x="174" y="82" width="13" height="13" rx="2" fill="#40c463"><title>Mar 04, 2025</title></rect>  <rect x="174" y="98" width="13" height="13" rx="2" fill="#216e39"><title>Mar 05, 2025</title></rect>  <rect x="174" y="114" width="13" height="13" rx="2" fill="#216e39"><title>Mar 06, 2025</title></rect>  <rect x="174" y="130" width="13" height="13" rx="2" fill="#216e39"><title>Mar 07, 2025</title></rect>  <rect x="174" y="146" width="13" height="13" rx="2" fill="#9be9a8"><title>Mar 08, 2025</title></rect>  <rect x="190" y="50" width="13" height="13" rx="2" fill="#ebedf0"><title>Mar 09, 2025</title></rect>  <rect x="190" y="66" width="13" height="13" rx="2" fill="#9be9a8"><title>Mar 10, 2025</title></rect>  <rect x="190" y="82" width="13" height="13" rx="2" fill="#9be9a8"><title>Mar 11, 2025</title></rect>  <rect x="190" y="98" width="13" height="13" rx="2" fill="#9be9a8"><title>Mar 12, 2025</title></rect>  <rect x="190" y="114" width="13" height="13" rx="2" fill="#216e39"><title>Mar 13, 2025</title></rect>  <rect x="190" y="130" width="13" height="13" rx="2" fill="#216e39"><title>Mar 14, 2025</title></rect>  <rect x="190" y="146" width="13" height="13" rx="2" fill="#9be9a8"><title>Mar 15, 2025</title></rect>  <rect x="206" y="50" width="13" height="13" rx="2" fill="#40c463"><title>Mar 16, 2025</title></rect>  <rect x="206" y="66" width="13" height="13" rx="2" fill="#40c463"><title>Mar 17, 2025</title></rect>  <rect x="206" y="82" width="13" height="13" rx="2" fill="#216e39"><title>Mar 18, 2025</title></rect>  <rect x="206" y="98" width="13" height="13" rx="2" fill="#40c463"><title>Mar 19, 2025</title></rect>  <rect x="206" y="114" width="13" height="13" rx="2" fill="#9be9a8"><title>Mar 20, 2025</title></rect>  <rect x="206" y="130" width="13" height="13" rx="2" fill="#9be9a8"><title>Mar 21, 2025</title></rect>  <rect x="206" y="146" width="13" height="13" rx="2" fill="#40c463"><title>Mar 22, 2025</title></rect>  <rect x="222" y="50" width="13" height="13" rx="2" fill="#9be9a8"><title>Mar 23, 2025</title></rect>  <rect x="222" y="66" width="13" height="13" rx="2" fill="#40c463"><title>Mar 24, 2025</title></rect>  <rect x="222" y="82" width="13" height="13" rx="2" fill="#216e39"><title>Mar 25, 2025</title></rect>  <rect x="222" y="98" width="13" height="13" rx="2" fill="#40c463"><title>Mar 26, 2025</title></rect>  <rect x="222" y="114" width="13" height="13" rx="2" fill="#9be9a8"><title>Mar 27, 2025</title></rect>  <rect x="222" y="130" width="13" height="13" rx="2" fill="#216e39"><title>Mar 28, 2025</title></rect>  <rect x="222" y="146" width="13" height="13" rx="2" fill="#40c463"><title>Mar 29, 2025</title></rect>  <rect x="238" y="50" width="13" height="13" rx="2" fill="#ebedf0"><title>Mar 30, 2025</title></rect>  <rect x="238" y="66" width="13" height="13" rx="2" fill="#ebedf0"><title>Mar 31, 2025</title></rect>  <rect x="238" y="82" width="13" height="13" rx="2" fill="#ebedf0"><title>Apr 01, 2025</title></rect>  <rect x="238" y="98" width="13" height="13" rx="2" fill="#40c463"><title>Apr 02, 2025</title></rect>  <rect x="238" y="114" width="13" height="13" rx="2" fill="#216e39"><title>Apr 03, 2025</title></rect>  <rect x="238" y="130" width="13" height="13" rx="2" fill="#40c463"><title>Apr 04, 2025</title></rect>  <rect x="238" y="146" width="13" height="13" rx="2" fill="#ebedf0"><title>Apr 05, 2025</title></rect>  <rect x="254" y="50" width="13" height="13" rx="2" fill="#40c463"><title>Apr 06, 2025</title></rect>  <rect x="254" y="66" width="13" height="13" rx="2" fill="#216e39"><title>Apr 07, 2025</title></rect>  <rect x="254" y="82" width="13" height="13" rx="2" fill="#40c463"><title>Apr 08, 2025</title></rect>  <rect x="254" y="98" width="13" height="13" rx="2" fill="#216e39"><title>Apr 09, 2025</title></rect>  <rect x="254" y="114" width="13" height="13" rx="2" fill="#216e39"><title>Apr 10, 2025</title></rect>  <rect x="254" y="130" width="13" height="13" rx="2" fill="#ebedf0"><title>Apr 11, 2025</title></rect>  <rect x="254" y="146" width="13" height="13" rx="2" fill="#216e39"><title>Apr 12, 2025</title></rect>  <rect x="270" y="50" width="13" height="13" rx="2" fill="#216e39"><title>Apr 13, 2025</title></rect>  <rect x="270" y="66" width="13" height="13" rx="2" fill="#40c463"><title>Apr 14, 2025</title></rect>  <rect x="270" y="82" width="13" height="13" rx="2" fill="#9be9a8"><title>Apr 15, 2025</title></rect>  <rect x="270" y="98" width="13" height="13" rx="2" fill="#40c463"><title>Apr 16, 2025</title></rect>  <rect x="270" y="114" width="13" height="13" rx="2" fill="#ebedf0"><title>Apr 17, 2025</title></rect>  <rect x="270" y="130" width="13" height="13" rx="2" fill="#40c463"><title>Apr 18, 2025</title></rect>  <rect x="270" y="146" width="13" height="13" rx="2" fill="#40c463"><title>Apr 19, 2025</title></rect>  <rect x="286" y="50" width="13" height="13" rx="2" fill="#216e39"><title>Apr 20, 2025</title></rect>  <rect x="286" y="66" width="13" height="13" rx="2" fill="#216e39"><title>Apr 21, 2025</title></rect>  <rect x="286" y="82" width="13" height="13" rx="2" fill="#9be9a8"><title>Apr 22, 2025</title></rect>  <rect x="286" y="98" width="13" height="13" rx="2" fill="#40c463"><title>Apr 23, 2025</title></rect>  <rect x="286" y="114" width="13" height="13" rx="2" fill="#9be9a8"><title>Apr 24, 2025</title></rect>  <rect x="286" y="130" width="13" height="13" rx="2" fill="#216e39"><title>Apr 25, 2025</title></rect>  <rect x="286" y="146" width="13" height="13" rx="2" fill="#216e39"><title>Apr 26, 2025</title></rect>  <rect x="302" y="50" width="13" height="13" rx="2" fill="#9be9a8"><title>Apr 27, 2025</title></rect>  <rect x="302" y="66" width="13" height="13" rx="2" fill="#40c463"><title>Apr 28, 2025</title></rect>  <rect x="302" y="82" width="13" height="13" rx="2" fill="#40c463"><title>Apr 29, 2025</title></rect>  <rect x="302" y="98" width="13" height="13" rx="2" fill="#9be9a8"><title>Apr 30, 2025</title></rect>  <rect x="302" y="114" width="13" height="13" rx="2" fill="#216e39"><title>May 01, 2025</title></rect>  <rect x="302" y="130" width="13" height="13" rx="2" fill="#40c463"><title>May 02, 2025</title></rect>  <rect x="302" y="146" width="13" height="13" rx="2" fill="#216e39"><title>May 03, 2025</title></rect>  <rect x="318" y="50" width="13" height="13" rx="2" fill="#40c463"><title>May 04, 2025</title></rect>  <rect x="318" y="66" width="13" height="13" rx="2" fill="#ebedf0"><title>May 05, 2025</title></rect>  <rect x="318" y="82" width="13" height="13" rx="2" fill="#9be9a8"><title>May 06, 2025</title></rect>  <rect x="318" y="98" width="13" height="13" rx="2" fill="#ebedf0"><title>May 07, 2025</title></rect>  <rect x="318" y="114" width="13" height="13" rx="2" fill="#216e39"><title>May 08, 2025</title></rect>  <rect x="318" y="130" width="13" height="13" rx="2" fill="#216e39"><title>May 09, 2025</title></rect>  <rect x="318" y="146" width="13" height="13" rx="2" fill="#216e39"><title>May 10, 2025</title></rect>  <rect x="334" y="50" width="13" height="13" rx="2" fill="#9be9a8"><title>May 11, 2025</title></rect>  <rect x="334" y="66" width="13" height="13" rx="2" fill="#ebedf0"><title>May 12, 2025</title></rect>  <rect x="334" y="82" width="13" height="13" rx="2" fill="#216e39"><title>May 13, 2025</title></rect>  <rect x="334" y="98" width="13" height="13" rx="2" fill="#216e39"><title>May 14, 2025</title></rect>  <rect x="334" y="114" width="13" height="13" rx="2" fill="#ebedf0"><title>May 15, 2025</title></rect>  <rect x="334" y="130" width="13" height="13" rx="2" fill="#40c463"><title>May 16, 2025</title></rect>  <rect x="334" y="146" width="13" height="13" rx="2" fill="#ebedf0"><title>May 17, 2025</title></rect>  <rect x="350" y="50" width="13" height="13" rx="2" fill="#216e39"><title>May 18, 2025</title></rect>  <rect x="350" y="66" width="13" height="13" rx="2" fill="#216e39"><title>May 19, 2025</title></rect>  <rect x="350" y="82" width="13" height="13" rx="2" fill="#9be9a8"><title>May 20, 2025</title></rect>  <rect x="350" y="98" width="13" height="13" rx="2" fill="#40c463"><title>May 21, 2025</title></rect>  <rect x="350" y="114" width="13" height="13" rx="2" fill="#40c463"><title>May 22, 2025</title></rect>  <rect x="350" y="130" width="13" height="13" rx="2" fill="#9be9a8"><title>May 23, 2025</title></rect>  <rect x="350" y="146" width="13" height="13" rx="2" fill="#216e39"><title>May 24, 2025</title></rect>  <rect x="366" y="50" width="13" height="13" rx="2" fill="#40c463"><title>May 25, 2025</title></rect>  <rect x="366" y="66" width="13" height="13" rx="2" fill="#9be9a8"><title>May 26, 2025</title></rect>  <rect x="366" y="82" width="13" height="13" rx="2" fill="#40c463"><title>May 27, 2025</title></rect>  <rect x="366" y="98" width="13" height="13" rx="2" fill="#216e39"><title>May 28, 2025</title></rect>  <rect x="366" y="114" width="13" height="13" rx="2" fill="#9be9a8"><title>May 29, 2025</title></rect>  <rect x="366" y="130" width="13" height="13" rx="2" fill="#9be9a8"><title>May 30, 2025</title></rect>  <rect x="366" y="146" width="13" height="13" rx="2" fill="#216e39"><title>May 31, 2025</title></rect>  <rect x="382" y="50" width="13" height="13" rx="2" fill="#40c463"><title>Jun 01, 2025</title></rect>  <rect x="382" y="66" width="13" height="13" rx="2" fill="#40c463"><title>Jun 02, 2025</title></rect>  <rect x="382" y="82" width="13" height="13" rx="2" fill="#40c463"><title>Jun 03, 2025</title></rect>  <rect x="382" y="98" width="13" height="13" rx="2" fill="#9be9a8"><title>Jun 04, 2025</title></rect>  <rect x="382" y="114" width="13" height="13" rx="2" fill="#9be9a8"><title>Jun 05, 2025</title></rect>  <rect x="382" y="130" width="13" height="13" rx="2" fill="#9be9a8"><title>Jun 06, 2025</title></rect>  <rect x="382" y="146" width="13" height="13" rx="2" fill="#40c463"><title>Jun 07, 2025</title></rect>  <rect x="398" y="50" width="13" height="13" rx="2" fill="#9be9a8"><title>Jun 08, 2025</title></rect>  <rect x="398" y="66" width="13" height="13" rx="2" fill="#9be9a8"><title>Jun 09, 2025</title></rect>  <rect x="398" y="82" width="13" height="13" rx="2" fill="#ebedf0"><title>Jun 10, 2025</title></rect>  <rect x="398" y="98" width="13" height="13" rx="2" fill="#40c463"><title>Jun 11, 2025</title></rect>  <rect x="398" y="114" width="13" height="13" rx="2" fill="#9be9a8"><title>Jun 12, 2025</title></rect>  <rect x="398" y="130" width="13" height="13" rx="2" fill="#216e39"><title>Jun 13, 2025</title></rect>  <rect x="398" y="146" width="13" height="13" rx="2" fill="#216e39"><title>Jun 14, 2025</title></rect>  <rect x="414" y="50" width="13" height="13" rx="2" fill="#ebedf0"><title>Jun 15, 2025</title></rect>  <rect x="414" y="66" width="13" height="13" rx="2" fill="#9be9a8"><title>Jun 16, 2025</title></rect>  <rect x="414" y="82" width="13" height="13" rx="2" fill="#40c463"><title>Jun 17, 2025</title></rect>  <rect x="414" y="98" width="13" height="13" rx="2" fill="#9be9a8"><title>Jun 18, 2025</title></rect>  <rect x="414" y="114" width="13" height="13" rx="2" fill="#9be9a8"><title>Jun 19, 2025</title></rect>  <rect x="414" y="130" width="13" height="13" rx="2" fill="#216e39"><title>Jun 20, 2025</title></rect>  <rect x="414" y="146" width="13" height="13" rx="2" fill="#40c463"><title>Jun 21, 2025</title></rect>  <rect x="430" y="50" width="13" height="13" rx="2" fill="#40c463"><title>Jun 22, 2025</title></rect>  <rect x="430" y="66" width="13" height="13" rx="2" fill="#216e39"><title>Jun 23, 2025</title></rect>  <rect x="430" y="82" width="13" height="13" rx="2" fill="#216e39"><title>Jun 24, 2025</title></rect>  <rect x="430" y="98" width="13" height="13" rx="2" fill="#9be9a8"><title>Jun 25, 2025</title></rect>  <rect x="430" y="114" width="13" height="13" rx="2" fill="#ebedf0"><title>Jun 26, 2025</title></rect>  <rect x="430" y="130" width="13" height="13" rx="2" fill="#40c463"><title>Jun 27, 2025</title></rect>  <rect x="430" y="146" width="13" height="13" rx="2" fill="#40c463"><title>Jun 28, 2025</title></rect>  <rect x="446" y="50" width="13" height="13" rx="2" fill="#40c463"><title>Jun 29, 2025</title></rect>  <rect x="446" y="66" width="13" height="13" rx="2" fill="#216e39"><title>Jun 30, 2025</title></rect>  <rect x="446" y="82" width="13" height="13" rx="2" fill="#40c463"><title>Jul 01, 2025</title></rect>  <rect x="446" y="98" width="13" height="13" rx="2" fill="#216e39"><title>Jul 02, 2025</title></rect>  <rect x="446" y="114" width="13" height="13" rx="2" fill="#ebedf0"><title>Jul 03, 2025</title></rect>  <rect x="446" y="130" width="13" height="13" rx="2" fill="#40c463"><title>Jul 04, 2025</title></rect>  <rect x="446" y="146" width="13" height="13" rx="2" fill="#9be9a8"><title>Jul 05, 2025</title></rect>  <rect x="462" y="50" width="13" height="13" rx="2" fill="#216e39"><title>Jul 06, 2025</title></rect>  <rect x="462" y="66" width="13" height="13" rx="2" fill="#9be9a8"><title>Jul 07, 2025</title></rect>  <rect x="462" y="82" width="13" height="13" rx="2" fill="#9be9a8"><title>Jul 08, 2025</title></rect>  <rect x="462" y="98" width="13" height="13" rx="2" fill="#40c463"><title>Jul 09, 2025</title></rect>  <rect x="462" y="114" width="13" height="13" rx="2" fill="#40c463"><title>Jul 10, 2025</title></rect>  <rect x="462" y="130" width="13" height="13" rx="2" fill="#9be9a8"><title>Jul 11, 2025</title></rect>  <rect x="462" y="146" width="13" height="13" rx="2" fill="#9be9a8"><title>Jul 12, 2025</title></rect>  <rect x="478" y="50" width="13" height="13" rx="2" fill="#216e39"><title>Jul 13, 2025</title></rect>  <rect x="478" y="66" width="13" height="13" rx="2" fill="#40c463"><title>Jul 14, 2025</title></rect>  <rect x="478" y="82" width="13" height="13" rx="2" fill="#216e39"><title>Jul 15, 2025</title></rect>  <rect x="478" y="98" width="13" height="13" rx="2" fill="#40c463"><title>Jul 16, 2025</title></rect>  <rect x="478" y="114" width="13" height="13" rx="2" fill="#ebedf0"><title>Jul 17, 2025</title></rect>  <rect x="478" y="130" width="13" height="13" rx="2" fill="#216e39"><title>Jul 18, 2025</title></rect>  <rect x="478" y="146" width="13" height="13" rx="2" fill="#216e39"><title>Jul 19, 2025</title></rect>  <rect x="494" y="50" width="13" height="13" rx="2" fill="#216e39"><title>Jul 20, 2025</title></rect>  <rect x="494" y="66" width="13" height="13" rx="2" fill="#216e39"><title>Jul 21, 2025</title></rect>  <rect x="494" y="82" width="13" height="13" rx="2" fill="#216e39"><title>Jul 22, 2025</title></rect>  <rect x="494" y="98" width="13" height="13" rx="2" fill="#9be9a8"><title>Jul 23, 2025</title></rect>  <rect x="494" y="114" width="13" height="13" rx="2" fill="#40c463"><title>Jul 24, 2025</title></rect>  <rect x="494" y="130" width="13" height="13" rx="2" fill="#9be9a8"><title>Jul 25, 2025</title></rect>  <rect x="494" y="146" width="13" height="13" rx="2" fill="#40c463"><title>Jul 26, 2025</title></rect>  <rect x="510" y="50" width="13" height="13" rx="2" fill="#ebedf0"><title>Jul 27, 2025</title></rect>  <rect x="510" y="66" width="13" height="13" rx="2" fill="#9be9a8"><title>Jul 28, 2025</title></rect>  <rect x="510" y="82" width="13" height="13" rx="2" fill="#216e39"><title>Jul 29, 2025</title></rect>  <rect x="510" y="98" width="13" height="13" rx="2" fill="#9be9a8"><title>Jul 30, 2025</title></rect>  <rect x="510" y="114" width="13" height="13" rx="2" fill="#216e39"><title>Jul 31, 2025</title></rect>  <rect x="510" y="130" width="13" height="13" rx="2" fill="#40c463"><title>Aug 01, 2025</title></rect>  <rect x="510" y="146" width="13" height="13" rx="2" fill="#40c463"><title>Aug 02, 2025</title></rect>  <rect x="526" y="50" width="13" height="13" rx="2" fill="#216e39"><title>Aug 03, 2025</title></rect>  <rect x="526" y="66" width="13" height="13" rx="2" fill="#216e39"><title>Aug 04, 2025</title></rect>  <rect x="526" y="82" width="13" height="13" rx="2" fill="#40c463"><title>Aug 05, 2025</title></rect>  <rect x="526" y="98" width="13" height="13" rx="2" fill="#216e39"><title>Aug 06, 2025</title></rect>  <rect x="526" y="114" width="13" height="13" rx="2" fill="#9be9a8"><title>Aug 07, 2025</title></rect>  <rect x="526" y="130" width="13" height="13" rx="2" fill="#9be9a8"><title>Aug 08, 2025</title></rect>  <rect x="526" y="146" width="13" height="13" rx="2" fill="#216e39"><title>Aug 09, 2025</title></rect>  <rect x="542" y="50" width="13" height="13" rx="2" fill="#40c463"><title>Aug 10, 2025</title></rect>  <rect x="542" y="66" width="13" height="13" rx="2" fill="#40c463"><title>Aug 11, 2025</title></rect>  <rect x="542" y="82" width="13" height="13" rx="2" fill="#216e39"><title>Aug 12, 2025</title></rect>  <rect x="542" y="98" width="13" height="13" rx="2" fill="#ebedf0"><title>Aug 13, 2025</title></rect>  <rect x="542" y="114" width="13" height="13" rx="2" fill="#40c463"><title>Aug 14, 2025</title></rect>  <rect x="542" y="130" width="13" height="13" rx="2" fill="#40c463"><title>Aug 15, 2025</title></rect>  <rect x="542" y="146" width="13" height="13" rx="2" fill="#216e39"><title>Aug 16, 2025</title></rect>  <rect x="558" y="50" width="13" height="13" rx="2" fill="#9be9a8"><title>Aug 17, 2025</title></rect>  <rect x="558" y="66" width="13" height="13" rx="2" fill="#216e39"><title>Aug 18, 2025</title></rect>  <rect x="558" y="82" width="13" height="13" rx="2" fill="#ebedf0"><title>Aug 19, 2025</title></rect>  <rect x="558" y="98" width="13" height="13" rx="2" fill="#9be9a8"><title>Aug 20, 2025</title></rect>  <rect x="558" y="114" width="13" height="13" rx="2" fill="#40c463"><title>Aug 21, 2025</title></rect>  <rect x="558" y="130" width="13" height="13" rx="2" fill="#40c463"><title>Aug 22, 2025</title></rect>  <rect x="558" y="146" width="13" height="13" rx="2" fill="#9be9a8"><title>Aug 23, 2025</title></rect>  <rect x="574" y="50" width="13" height="13" rx="2" fill="#ebedf0"><title>Aug 24, 2025</title></rect>  <rect x="574" y="66" width="13" height="13" rx="2" fill="#216e39"><title>Aug 25, 2025</title></rect>  <rect x="574" y="82" width="13" height="13" rx="2" fill="#9be9a8"><title>Aug 26, 2025</title></rect>  <rect x="574" y="98" width="13" height="13" rx="2" fill="#40c463"><title>Aug 27, 2025</title></rect>  <rect x="574" y="114" width="13" height="13" rx="2" fill="#40c463"><title>Aug 28, 2025</title></rect>  <rect x="574" y="130" width="13" height="13" rx="2" fill="#40c463"><title>Aug 29, 2025</title></rect>  <rect x="574" y="146" width="13" height="13" rx="2" fill="#40c463"><title>Aug 30, 2025</title></rect>  <rect x="590" y="50" width="13" height="13" rx="2" fill="#40c463"><title>Aug 31, 2025</title></rect>  <rect x="590" y="66" width="13" height="13" rx="2" fill="#216e39"><title>Sep 01, 2025</title></rect>  <rect x="590" y="82" width="13" height="13" rx="2" fill="#9be9a8"><title>Sep 02, 2025</title></rect>  <rect x="590" y="98" width="13" height="13" rx="2" fill="#216e39"><title>Sep 03, 2025</title></rect>  <rect x="590" y="114" width="13" height="13" rx="2" fill="#9be9a8"><title>Sep 04, 2025</title></rect>  <rect x="590" y="130" width="13" height="13" rx="2" fill="#40c463"><title>Sep 05, 2025</title></rect>  <rect x="590" y="146" width="13" height="13" rx="2" fill="#40c463"><title>Sep 06, 2025</title></rect>  <rect x="606" y="50" width="13" height="13" rx="2" fill="#9be9a8"><title>Sep 07, 2025</title></rect>  <rect x="606" y="66" width="13" height="13" rx="2" fill="#9be9a8"><title>Sep 08, 2025</title></rect>  <rect x="606" y="82" width="13" height="13" rx="2" fill="#216e39"><title>Sep 09, 2025</title></rect>  <rect x="606" y="98" width="13" height="13" rx="2" fill="#ebedf0"><title>Sep 10, 2025</title></rect>  <rect x="606" y="114" width="13" height="13" rx="2" fill="#40c463"><title>Sep 11, 2025</title></rect>  <rect x="606" y="130" width="13" height="13" rx="2" fill="#216e39"><title>Sep 12, 2025</title></rect>  <rect x="606" y="146" width="13" height="13" rx="2" fill="#216e39"><title>Sep 13, 2025</title></rect>  <rect x="622" y="50" width="13" height="13" rx="2" fill="#ebedf0"><title>Sep 14, 2025</title></rect>  <rect x="622" y="66" width="13" height="13" rx="2" fill="#9be9a8"><title>Sep 15, 2025</title></rect>  <rect x="622" y="82" width="13" height="13" rx="2" fill="#9be9a8"><title>Sep 16, 2025</title></rect>  <rect x="622" y="98" width="13" height="13" rx="2" fill="#216e39"><title>Sep 17, 2025</title></rect>  <rect x="622" y="114" width="13" height="13" rx="2" fill="#216e39"><title>Sep 18, 2025</title></rect>  <rect x="622" y="130" width="13" height="13" rx="2" fill="#216e39"><title>Sep 19, 2025</title></rect>  <rect x="622" y="146" width="13" height="13" rx="2" fill="#9be9a8"><title>Sep 20, 2025</title></rect>  <rect x="638" y="50" width="13" height="13" rx="2" fill="#9be9a8"><title>Sep 21, 2025</title></rect>  <rect x="638" y="66" width="13" height="13" rx="2" fill="#216e39"><title>Sep 22, 2025</title></rect>  <rect x="638" y="82" width="13" height="13" rx="2" fill="#216e39"><title>Sep 23, 2025</title></rect>  <rect x="638" y="98" width="13" height="13" rx="2" fill="#40c463"><title>Sep 24, 2025</title></rect>  <rect x="638" y="114" width="13" height="13" rx="2" fill="#216e39"><title>Sep 25, 2025</title></rect>  <rect x="638" y="130" width="13" height="13" rx="2" fill="#40c463"><title>Sep 26, 2025</title></rect>  <rect x="638" y="146" width="13" height="13" rx="2" fill="#ebedf0"><title>Sep 27, 2025</title></rect>  <rect x="654" y="50" width="13" height="13" rx="2" fill="#216e39"><title>Sep 28, 2025</title></rect>  <rect x="654" y="66" width="13" height="13" rx="2" fill="#9be9a8"><title>Sep 29, 2025</title></rect>  <rect x="654" y="82" width="13" height="13" rx="2" fill="#40c463"><title>Sep 30, 2025</title></rect>  <rect x="654" y="98" width="13" height="13" rx="2" fill="#216e39"><title>Oct 01, 2025</title></rect>  <rect x="654" y="114" width="13" height="13" rx="2" fill="#9be9a8"><title>Oct 02, 2025</title></rect>  <rect x="654" y="130" width="13" height="13" rx="2" fill="#ebedf0"><title>Oct 03, 2025</title></rect>  <rect x="654" y="146" width="13" height="13" rx="2" fill="#ebedf0"><title>Oct 04, 2025</title></rect>  <rect x="670" y="50" width="13" height="13" rx="2" fill="#40c463"><title>Oct 05, 2025</title></rect>  <rect x="670" y="66" width="13" height="13" rx="2" fill="#9be9a8"><title>Oct 06, 2025</title></rect>  <rect x="670" y="82" width="13" height="13" rx="2" fill="#40c463"><title>Oct 07, 2025</title></rect>  <rect x="670" y="98" width="13" height="13" rx="2" fill="#216e39"><title>Oct 08, 2025</title></rect>  <rect x="670" y="114" width="13" height="13" rx="2" fill="#9be9a8"><title>Oct 09, 2025</title></rect>  <rect x="670" y="130" width="13" height="13" rx="2" fill="#40c463"><title>Oct 10, 2025</title></rect>  <rect x="670" y="146" width="13" height="13" rx="2" fill="#9be9a8"><title>Oct 11, 2025</title></rect>  <rect x="686" y="50" width="13" height="13" rx="2" fill="#40c463"><title>Oct 12, 2025</title></rect>  <rect x="686" y="66" width="13" height="13" rx="2" fill="#216e39"><title>Oct 13, 2025</title></rect>  <rect x="686" y="82" width="13" height="13" rx="2" fill="#216e39"><title>Oct 14, 2025</title></rect>  <rect x="686" y="98" width="13" height="13" rx="2" fill="#ebedf0"><title>Oct 15, 2025</title></rect>  <rect x="686" y="114" width="13" height="13" rx="2" fill="#40c463"><title>Oct 16, 2025</title></rect>  <rect x="686" y="130" width="13" height="13" rx="2" fill="#9be9a8"><title>Oct 17, 2025</title></rect>  <rect x="686" y="146" width="13" height="13" rx="2" fill="#ebedf0"><title>Oct 18, 2025</title></rect>  <rect x="702" y="50" width="13" height="13" rx="2" fill="#216e39"><title>Oct 19, 2025</title></rect>  <rect x="702" y="66" width="13" height="13" rx="2" fill="#40c463"><title>Oct 20, 2025</title></rect>  <rect x="702" y="82" width="13" height="13" rx="2" fill="#9be9a8"><title>Oct 21, 2025</title></rect>  <rect x="702" y="98" width="13" height="13" rx="2" fill="#216e39"><title>Oct 22, 2025</title></rect>  <rect x="702" y="114" width="13" height="13" rx="2" fill="#40c463"><title>Oct 23, 2025</title></rect>  <rect x="702" y="130" width="13" height="13" rx="2" fill="#40c463"><title>Oct 24, 2025</title></rect>  <rect x="702" y="146" width="13" height="13" rx="2" fill="#ebedf0"><title>Oct 25, 2025</title></rect>  <rect x="718" y="50" width="13" height="13" rx="2" fill="#ebedf0"><title>Oct 26, 2025</title></rect>  <rect x="718" y="66" width="13" height="13" rx="2" fill="#216e39"><title>Oct 27, 2025</title></rect>  <rect x="718" y="82" width="13" height="13" rx="2" fill="#216e39"><title>Oct 28, 2025</title></rect>  <rect x="718" y="98" width="13" height="13" rx="2" fill="#40c463"><title>Oct 29, 2025</title></rect>  <rect x="718" y="114" width="13" height="13" rx="2" fill="#216e39"><title>Oct 30, 2025</title></rect>  <rect x="718" y="130" width="13" height="13" rx="2" fill="#40c463"><title>Oct 31, 2025</title></rect>  <rect x="718" y="146" width="13" height="13" rx="2" fill="#9be9a8"><title>Nov 01, 2025</title></rect>  <rect x="734" y="50" width="13" height="13" rx="2" fill="#9be9a8"><title>Nov 02, 2025</title></rect>  <rect x="734" y="66" width="13" height="13" rx="2" fill="#9be9a8"><title>Nov 03, 2025</title></rect>  <rect x="734" y="82" width="13" height="13" rx="2" fill="#216e39"><title>Nov 04, 2025</title></rect>  <rect x="734" y="98" width="13" height="13" rx="2" fill="#216e39"><title>Nov 05, 2025</title></rect>  <rect x="734" y="114" width="13" height="13" rx="2" fill="#216e39"><title>Nov 06, 2025</title></rect>  <rect x="734" y="130" width="13" height="13" rx="2" fill="#216e39"><title>Nov 07, 2025</title></rect>  <rect x="734" y="146" width="13" height="13" rx="2" fill="#9be9a8"><title>Nov 08, 2025</title></rect>  <rect x="750" y="50" width="13" height="13" rx="2" fill="#9be9a8"><title>Nov 09, 2025</title></rect>  <rect x="750" y="66" width="13" height="13" rx="2" fill="#ebedf0"><title>Nov 10, 2025</title></rect>  <rect x="750" y="82" width="13" height="13" rx="2" fill="#216e39"><title>Nov 11, 2025</title></rect>  <rect x="750" y="98" width="13" height="13" rx="2" fill="#216e39"><title>Nov 12, 2025</title></rect>  <rect x="750" y="114" width="13" height="13" rx="2" fill="#40c463"><title>Nov 13, 2025</title></rect>  <rect x="750" y="130" width="13" height="13" rx="2" fill="#40c463"><title>Nov 14, 2025</title></rect>  <rect x="750" y="146" width="13" height="13" rx="2" fill="#9be9a8"><title>Nov 15, 2025</title></rect>  <rect x="766" y="50" width="13" height="13" rx="2" fill="#216e39"><title>Nov 16, 2025</title></rect>  <rect x="766" y="66" width="13" height="13" rx="2" fill="#216e39"><title>Nov 17, 2025</title></rect>  <rect x="766" y="82" width="13" height="13" rx="2" fill="#216e39"><title>Nov 18, 2025</title></rect>  <rect x="766" y="98" width="13" height="13" rx="2" fill="#216e39"><title>Nov 19, 2025</title></rect>  <rect x="766" y="114" width="13" height="13" rx="2" fill="#216e39"><title>Nov 20, 2025</title></rect>  <rect x="766" y="130" width="13" height="13" rx="2" fill="#ebedf0"><title>Nov 21, 2025</title></rect>  <rect x="766" y="146" width="13" height="13" rx="2" fill="#216e39"><title>Nov 22, 2025</title></rect>  <rect x="782" y="50" width="13" height="13" rx="2" fill="#9be9a8"><title>Nov 23, 2025</title></rect>  <rect x="782" y="66" width="13" height="13" rx="2" fill="#216e39"><title>Nov 24, 2025</title></rect>  <rect x="782" y="82" width="13" height="13" rx="2" fill="#216e39"><title>Nov 25, 2025</title></rect>  <rect x="782" y="98" width="13" height="13" rx="2" fill="#216e39"><title>Nov 26, 2025</title></rect>  <rect x="782" y="114" width="13" height="13" rx="2" fill="#216e39"><title>Nov 27, 2025</title></rect>  <rect x="782" y="130" width="13" height="13" rx="2" fill="#9be9a8"><title>Nov 28, 2025</title></rect>  <rect x="782" y="146" width="13" height="13" rx="2" fill="#216e39"><title>Nov 29, 2025</title></rect>  <rect x="798" y="50" width="13" height="13" rx="2" fill="#ebedf0"><title>Nov 30, 2025</title></rect>  <rect x="798" y="66" width="13" height="13" rx="2" fill="#216e39"><title>Dec 01, 2025</title></rect>  <rect x="798" y="82" width="13" height="13" rx="2" fill="#216e39"><title>Dec 02, 2025</title></rect>  <rect x="798" y="98" width="13" height="13" rx="2" fill="#9be9a8"><title>Dec 03, 2025</title></rect>  <rect x="798" y="114" width="13" height="13" rx="2" fill="#216e39"><title>Dec 04, 2025</title></rect>  <rect x="798" y="130" width="13" height="13" rx="2" fill="#40c463"><title>Dec 05, 2025</title></rect>  <rect x="798" y="146" width="13" height="13" rx="2" fill="#9be9a8"><title>Dec 06, 2025</title></rect>  <rect x="814" y="50" width="13" height="13" rx="2" fill="#216e39"><title>Dec 07, 2025</title></rect>  <rect x="814" y="66" width="13" height="13" rx="2" fill="#9be9a8"><title>Dec 08, 2025</title></rect>  <rect x="814" y="82" width="13" height="13" rx="2" fill="#ebedf0"><title>Dec 09, 2025</title></rect>  <rect x="814" y="98" width="13" height="13" rx="2" fill="#9be9a8"><title>Dec 10, 2025</title></rect>  <rect x="814" y="114" width="13" height="13" rx="2" fill="#9be9a8"><title>Dec 11, 2025</title></rect>  <rect x="814" y="130" width="13" height="13" rx="2" fill="#216e39"><title>Dec 12, 2025</title></rect>  <rect x="814" y="146" width="13" height="13" rx="2" fill="#216e39"><title>Dec 13, 2025</title></rect>  <rect x="830" y="50" width="13" height="13" rx="2" fill="#9be9a8"><title>Dec 14, 2025</title></rect>  <rect x="830" y="66" width="13" height="13" rx="2" fill="#40c463"><title>Dec 15, 2025</title></rect>  <rect x="830" y="82" width="13" height="13" rx="2" fill="#40c463"><title>Dec 16, 2025</title></rect>  <rect x="830" y="98" width="13" height="13" rx="2" fill="#216e39"><title>Dec 17, 2025</title></rect>  <rect x="830" y="114" width="13" height="13" rx="2" fill="#40c463"><title>Dec 18, 2025</title></rect>  <rect x="830" y="130" width="13" height="13" rx="2" fill="#216e39"><title>Dec 19, 2025</title></rect>  <rect x="830" y="146" width="13" height="13" rx="2" fill="#ebedf0"><title>Dec 20, 2025</title></rect>  <rect x="846" y="50" width="13" height="13" rx="2" fill="#216e39"><title>Dec 21, 2025</title></rect>  <rect x="846" y="66" width="13" height="13" rx="2" fill="#9be9a8"><title>Dec 22, 2025</title></rect>  <rect x="846" y="82" width="13" height="13" rx="2" fill="#216e39"><title>Dec 23, 2025</title></rect>  <rect x="846" y="98" width="13" height="13" rx="2" fill="#9be9a8"><title>Dec 24, 2025</title></rect>  <rect x="846" y="114" width="13" height="13" rx="2" fill="#ebedf0"><title>Dec 25, 2025</title></rect>  <rect x="846" y="130" width="13" height="13" rx="2" fill="#40c463"><title>Dec 26, 2025</title></rect>  <rect x="846" y="146" width="13" height="13" rx="2" fill="#216e39"><title>Dec 27, 2025</title></rect>  <rect x="862" y="50" width="13" height="13" rx="2" fill="#9be9a8"><title>Dec 28, 2025</title></rect>  <rect x="862" y="66" width="13" height="13" rx="2" fill="#40c463"><title>Dec 29, 2025</title></rect>  <rect x="862" y="82" width="13" height="13" rx="2" fill="#40c463"><title>Dec 30, 2025</title></rect>  <rect x="862" y="98" width="13" height="13" rx="2" fill="#40c463"><title>Dec 31, 2025</title></rect>
  <text x="28" y="174" font-size="10" fill="#767676" font-family="-apple-system,BlinkMacSystemFont,Segoe UI,sans-serif">Less</text>  <rect x="56" y="166" width="12" height="12" rx="2" fill="#ebedf0"/>  <rect x="74" y="166" width="12" height="12" rx="2" fill="#9be9a8"/>  <rect x="92" y="166" width="12" height="12" rx="2" fill="#40c463"/>  <rect x="110" y="166" width="12" height="12" rx="2" fill="#216e39"/>  <text x="132" y="174" font-size="10" fill="#767676" font-family="-apple-system,BlinkMacSystemFont,Segoe UI,sans-serif">More</text>
</svg>